<?xml version="1.0" standalone="no"?>
<!DOCTYPE svg PUBLIC "-//W3C//DTD SVG 20010904//EN"
 "http://www.w3.org/TR/2001/REC-SVG-20010904/DTD/svg10.dtd">
<svg version="1.0" xmlns="http://www.w3.org/2000/svg"
 width="2334.000000pt" height="713.000000pt" viewBox="0 0 2334.000000 713.000000"
 preserveAspectRatio="xMidYMid meet">

<g transform="translate(0.000000,713.000000) scale(0.100000,-0.100000)"
fill="#000000" stroke="none">
<path d="M3147 5919 c-485 -47 -965 -275 -1312 -623 -413 -414 -635 -952 -635
-1534 0 -260 29 -447 107 -685 209 -639 712 -1148 1357 -1373 l120 -41 27 -66
c32 -81 104 -182 166 -237 58 -49 188 -114 261 -129 76 -16 208 -14 277 4 186
49 352 199 414 375 l19 53 99 32 c247 81 524 235 711 395 l41 35 -85 79 -85
78 -78 -61 c-152 -117 -358 -231 -520 -286 l-71 -24 -6 27 c-49 221 -219 402
-430 457 -34 9 -101 15 -164 15 -89 0 -117 -5 -186 -28 -99 -35 -177 -86 -248
-163 -59 -63 -118 -172 -138 -254 -7 -27 -13 -51 -14 -53 -3 -5 -174 63 -254
101 -171 81 -345 204 -494 347 -321 309 -516 690 -582 1140 -24 170 -15 469
20 637 189 893 931 1524 1836 1560 495 19 996 -162 1358 -492 45 -41 86 -75
91 -75 5 0 40 11 77 25 38 14 89 33 113 41 l43 16 -68 70 c-456 466 -1108 700
-1767 637z"/>
<path d="M11325 4874 c-115 -36 -247 -76 -292 -90 l-83 -25 0 -394 c0 -222 -4
-395 -9 -395 -5 0 -45 18 -89 40 -114 57 -212 80 -342 80 -303 0 -562 -111
-732 -314 -71 -85 -159 -258 -188 -370 -32 -126 -44 -286 -30 -411 22 -211 87
-353 219 -485 74 -74 101 -93 191 -137 164 -81 247 -98 470 -97 176 0 189 1
265 28 82 28 151 66 218 119 21 16 41 26 45 22 4 -3 21 -43 38 -88 l31 -82
257 -3 256 -2 0 1335 c0 734 -3 1335 -7 1334 -5 0 -102 -30 -218 -65z m-543
-939 c37 -7 88 -23 113 -34 l45 -20 0 -670 0 -670 -56 -40 c-81 -58 -138 -74
-244 -69 -114 5 -195 43 -269 124 -142 155 -208 471 -170 810 47 428 261 637
581 569z"/>
<path d="M21915 4874 c-115 -35 -247 -76 -292 -90 l-83 -25 -2 -394 -3 -394
-79 38 c-142 70 -170 76 -366 75 -145 0 -188 -4 -250 -21 -215 -60 -354 -147
-474 -296 -153 -189 -226 -437 -213 -717 7 -151 25 -227 82 -345 138 -287 424
-435 844 -435 232 0 417 41 591 131 180 93 296 211 380 384 90 187 84 103 88
1193 1 529 -1 962 -5 961 -4 0 -102 -30 -218 -65z m-464 -952 c105 -41 94 35
94 -664 0 -698 2 -679 -82 -769 -137 -146 -382 -120 -513 56 -111 148 -160
341 -160 630 0 331 64 547 198 667 48 43 87 65 162 90 76 25 222 20 301 -10z"/>
<path d="M5025 4848 c-143 -43 -277 -83 -298 -89 l-38 -10 3 -882 c4 -1000 -2
-928 89 -1112 149 -304 441 -484 784 -485 213 0 405 40 570 119 124 59 175 93
261 174 118 110 210 266 256 432 19 69 22 106 22 265 0 220 -14 285 -95 449
-113 230 -323 371 -598 402 -212 24 -434 -35 -624 -167 l-62 -43 -5 513 -5
513 -260 -79z m633 -968 c163 -38 286 -176 341 -382 35 -129 44 -229 38 -426
-4 -158 -9 -202 -31 -286 -69 -265 -207 -403 -411 -414 -104 -6 -166 19 -230
90 -76 85 -75 72 -75 742 l0 591 43 27 c23 14 67 34 97 43 30 9 60 18 65 20
22 7 123 4 163 -5z"/>
<path d="M7960 4109 c-237 -25 -449 -111 -604 -243 -126 -108 -232 -291 -267
-460 -24 -115 -25 -306 -3 -414 90 -442 488 -722 1026 -722 502 0 879 230
1007 615 92 278 53 598 -100 822 -201 295 -612 451 -1059 402z m297 -119 c65
-28 145 -111 179 -184 69 -150 100 -387 91 -694 -14 -504 -130 -725 -387 -740
-232 -13 -362 139 -416 485 -20 133 -24 494 -5 633 39 306 135 470 301 517 64
18 174 11 237 -17z"/>
<path d="M18525 4099 c-238 -30 -444 -122 -592 -263 -85 -80 -139 -154 -188
-259 -130 -276 -102 -657 66 -904 197 -288 596 -445 1031 -405 488 45 818 307
903 717 21 102 22 305 1 401 -84 395 -397 657 -851 713 -103 13 -268 12 -370
0z m305 -106 c68 -22 147 -94 188 -170 39 -75 76 -202 93 -323 17 -121 17
-507 1 -622 -39 -269 -116 -419 -251 -485 -49 -24 -68 -28 -146 -28 -107 0
-166 22 -233 88 -79 77 -125 185 -158 372 -25 140 -26 575 -1 718 45 260 137
408 281 453 59 18 165 17 226 -3z"/>
<path d="M14435 3995 l-270 -83 -3 -821 -2 -821 300 0 300 0 0 733 0 733 53
31 c85 51 149 68 262 68 126 0 183 -23 254 -101 89 -98 85 -59 89 -806 l3
-658 300 0 300 0 -4 703 c-1 386 -6 712 -11 724 -7 18 0 26 46 57 91 60 158
80 278 80 93 1 111 -2 160 -25 98 -47 159 -127 180 -238 6 -33 10 -297 10
-677 l0 -624 300 0 300 0 -1 683 c0 761 0 756 -69 871 -148 247 -510 327 -875
195 -93 -34 -232 -110 -316 -174 l-56 -42 -27 43 c-64 100 -200 188 -342 220
-114 25 -318 16 -438 -20 -116 -35 -215 -81 -321 -150 -47 -31 -88 -56 -90
-56 -3 0 -5 54 -5 120 0 108 -2 120 -17 119 -10 -1 -139 -38 -288 -84z"/>
<path d="M11960 4026 c0 -2 191 -396 424 -877 233 -481 423 -877 421 -880 -2
-3 -126 -84 -274 -180 -149 -96 -271 -176 -271 -179 0 -6 419 -267 441 -274
10 -4 153 300 554 1184 297 655 542 1195 543 1200 2 6 -31 10 -85 10 l-88 0
-239 -527 c-131 -291 -241 -531 -245 -535 -3 -4 -123 234 -265 528 l-259 534
-329 0 c-180 0 -328 -2 -328 -4z"/>
</g>
</svg>
