<?xml version="1.0" encoding="UTF-8"?>
<svg id="Layer_1" xmlns="http://www.w3.org/2000/svg" viewBox="0 0 722.47 140.76">
  <path d="M96.49,70.06v-.21c16.33-1.72,26.43-12.25,26.43-30.52,0-24.5-14.61-35.24-43.2-35.24H0v132.6h48.14v-47.28h12.46c9.03,0,14.4,4.3,14.4,15.69v31.59h48.57v-34.6c0-23.21-15.04-30.73-27.08-32.02ZM61.25,60.17h-13.11v-30.95h12.89c8.6,0,15.04,5.59,15.04,15.26,0,8.81-5.59,15.69-14.83,15.69Z"/>
  <polygon points="669.6 105.09 669.6 83.6 718.17 83.6 718.17 55.23 669.6 55.23 669.6 35.67 721.82 35.67 721.82 4.08 621.46 4.08 621.46 136.68 722.47 136.68 722.47 105.09 669.6 105.09"/>
  <path d="M412.43,4.08l-42.77,132.6h48.56l4.88-20.85h35.1l4.51,20.85h49.42L470.45,4.08h-58.01ZM429.09,90.26l11.92-50.93h.32s.33,0,.33,0l11.02,50.93h-23.58Z"/>
  <path d="M202.24,0c-49,0-62.32,15.9-62.32,70.27s13.32,70.49,62.32,70.49,62.32-15.9,62.32-70.49S251.02,0,202.24,0ZM215.99,101.01c0,7.95-5.8,12.25-13.75,12.25s-13.75-4.3-13.75-12.25v-61.25c0-7.95,5.8-12.25,13.75-12.25s13.75,4.3,13.75,12.25v61.25Z"/>
  <polygon points="502.31 35.67 531.75 35.67 531.75 136.68 579.89 136.68 579.89 35.67 609.54 35.67 609.54 4.08 502.31 4.08 502.31 35.67"/>
  <polygon points="378.48 4.08 271.02 4.08 271.02 35.67 300.68 35.67 300.68 136.68 348.82 136.68 348.82 35.67 378.48 35.67 378.48 4.08"/>
</svg>