<?xml version="1.0" encoding="UTF-8"?>
<!-- Generator: Adobe Illustrator 28.3.0, SVG Export Plug-In . SVG Version: 6.00 Build 0)  -->
<svg xmlns="http://www.w3.org/2000/svg" xmlns:xlink="http://www.w3.org/1999/xlink" version="1.1" id="Lag_1" x="0px" y="0px" viewBox="0 0 824 139.9" style="enable-background:new 0 0 824 139.9;" xml:space="preserve">
<style type="text/css">
	.st0{fill:#020202;}
</style>
<g>
	<path class="st0" d="M0,135.7V4.1h58.5c28.3,0,47.5,18.7,47.5,45.7c0,19.1-10.4,34.7-26.8,41.8c11.5,14.6,22.9,29.3,34,44.1h-34   c-10.7-13.5-21.2-27.2-31.5-41H28.3v41L0,135.7z M58.5,70c8.8,0,19.3-6.5,19.3-20.2c0-6.8-2.5-21-19.3-21H28.3V70H58.5z    M172.1,58.1h63V83h-63v28.1h71.3v24.6h-99.7V4.1h99.7v24.7h-71.3L172.1,58.1z M310.9,57.8h62.8v24.7h-62.8v53.3h-28.6V4.1H382   v24.7h-71.1V57.8z M438.3,135.6L503.8,4.1h31.5l-65.2,131.4H438.3 M591.1,135.7h-28.3V0l90.7,80.3v-76H682v135.6l-90.9-79   L591.1,135.7z M752.8,58.1h63V83h-63v28.1H824v24.6h-99.7V4.1H824v24.7h-71.2V58.1z"></path>
	<path class="st0" d="M458.2,91.9L414.7,4.1h31.5l27.6,56.9L458.2,91.9z"></path>
</g>
</svg>
