<svg width="127" height="25" viewBox="0 0 127 25" fill="none" xmlns="http://www.w3.org/2000/svg">
<path d="M82.378 23.4079L83.8082 23.2651C84.4297 23.2195 84.846 23.1402 85.0611 23.0331C85.2762 22.9281 85.3838 22.815 85.3838 22.6961V2.17833C85.3838 2.10695 85.3718 2.04945 85.3479 1.99988C85.324 1.95229 85.2443 1.91065 85.1129 1.87496C84.9834 1.83927 84.7902 1.8016 84.5412 1.76789C84.2922 1.7322 83.9277 1.70246 83.4517 1.67867L82.4139 1.5716L82.3063 1.35944H92.7537L92.6462 1.5716L90.4989 1.71436C89.8794 1.76194 89.4372 1.83927 89.1763 1.94634C88.9134 2.05341 88.7819 2.16643 88.7819 2.28341V23.1204L92.2896 23.2969C93.5604 23.2969 96.0782 23.1303 96.865 22.7992C97.6517 22.4661 99.8767 19.1073 99.8767 19.1073L99.1955 23.6181H82.2725L82.378 23.4079Z" fill="#171717"/>
<path d="M108.689 23.4079L110.119 23.2651C110.74 23.2195 111.157 23.1402 111.372 23.0331C111.587 22.9281 111.694 22.815 111.694 22.6961V2.17833C111.694 2.10695 111.684 2.04945 111.658 1.99988C111.635 1.95229 111.557 1.91065 111.427 1.87496C111.296 1.83927 111.105 1.8016 110.854 1.76789C110.605 1.7322 110.24 1.70246 109.762 1.67867L108.726 1.5716L108.619 1.35944H119.066L118.959 1.5716L116.811 1.71436C116.19 1.76194 115.75 1.83927 115.489 1.94634C115.226 2.05341 115.096 2.16643 115.096 2.28341V23.1204L118.602 23.2969C119.873 23.2969 122.391 23.1303 123.177 22.7992C123.964 22.4661 126.187 19.1073 126.187 19.1073L125.506 23.6181H108.583L108.689 23.4079Z" fill="#171717"/>
<path d="M7.6949 24.1217C7.19494 24.1217 6.6392 24.086 6.03168 24.0126C5.42416 23.9432 4.80867 23.8481 4.1892 23.7291C3.56972 23.6101 2.96021 23.4793 2.36464 23.3365C1.76907 23.1957 1.20536 23.0411 0.681501 22.8725L0.538086 17.5666H0.753209L1.68342 19.6307C2.35069 21.1277 3.19724 22.1905 4.22306 22.819C5.24887 23.4495 6.40616 23.7648 7.6949 23.7648C8.43389 23.7648 9.11511 23.6339 9.73458 23.3702C10.356 23.1105 10.8839 22.7536 11.3281 22.3015C11.7683 21.8534 12.1089 21.3101 12.3479 20.6816C12.585 20.053 12.7045 19.371 12.7045 18.6334C12.7045 17.9473 12.5909 17.3347 12.3639 16.7993C12.1368 16.2659 11.8021 15.798 11.3619 15.3935C10.9197 14.989 10.3839 14.6282 9.75052 14.3089C9.11909 13.9877 8.39803 13.6863 7.58535 13.4028C6.67904 13.0935 5.83847 12.7485 5.06363 12.3678C4.28879 11.9891 3.61952 11.543 3.0598 11.0334C2.49809 10.5238 2.06386 9.93494 1.75313 9.27071C1.4424 8.6045 1.28902 7.8332 1.28902 6.95285C1.28902 6.21724 1.44439 5.48758 1.75313 4.76386C2.06386 4.03817 2.51602 3.38584 3.11358 2.8029C3.70915 2.22195 4.44216 1.75203 5.31261 1.39711C6.18506 1.04021 7.179 0.861763 8.30242 0.861763C9.25653 0.861763 10.1369 0.94504 10.9496 1.10961C11.7623 1.27616 12.5232 1.46651 13.2403 1.68065L14.527 1.21866L14.5987 7.02423H14.4195L12.1288 2.60859C11.6289 2.2041 11.0731 1.87298 10.4656 1.61125C9.85609 1.35151 9.13503 1.21866 8.30043 1.21866C7.70486 1.21866 7.14315 1.31978 6.61929 1.52401C6.09542 1.72427 5.64127 2.00781 5.25883 2.37859C4.87639 2.7454 4.5796 3.17764 4.36448 3.6773C4.14936 4.17696 4.04379 4.71033 4.04379 5.28137C4.04379 5.9456 4.16928 6.52655 4.41826 7.02423C4.66924 7.5219 5.01981 7.96406 5.47396 8.34277C5.9281 8.72346 6.45794 9.05657 7.06547 9.34209C7.67498 9.62563 8.33628 9.89925 9.05336 10.161C10.125 10.5159 11.0791 10.9105 11.9157 11.3387C12.7483 11.767 13.4534 12.2568 14.0271 12.8159C14.5987 13.3751 15.035 14.0036 15.3337 14.7015C15.6305 15.4034 15.7819 16.2164 15.7819 17.1443C15.7819 17.9513 15.5907 18.7702 15.2083 19.601C14.8258 20.4337 14.284 21.1872 13.5789 21.8633C12.8758 22.5414 12.0292 23.0867 11.0393 23.5031C10.0513 23.9115 8.93584 24.1217 7.6949 24.1217Z" fill="#171717"/>
<path d="M59.0176 13.8628L57.6571 17.7431C57.2767 18.907 56.9958 19.833 56.8166 20.521C56.6353 21.211 56.6074 21.7503 56.7269 22.1409C56.8464 22.5335 57.1253 22.8131 57.5675 22.9776C58.0097 23.1442 58.659 23.2632 59.5175 23.3345L60.2705 23.4059L60.378 23.6181H52.291L52.3986 23.4059L52.9702 23.3345C53.518 23.2632 53.9702 23.1442 54.3307 22.9776C54.6872 22.8131 55.0458 22.4621 55.4043 21.9268C55.7609 21.3914 56.1473 20.5963 56.5656 19.5395C56.9839 18.4827 57.5257 17.0293 58.1949 15.1774L62.1349 4.12938L61.8102 3.08049L64.3837 0.859781L70.2896 18.9189C70.5765 19.8448 70.8314 20.5924 71.0585 21.1634C71.2836 21.7344 71.5106 22.1726 71.7377 22.48C71.9648 22.7893 72.2217 23.0014 72.5066 23.1204C72.7934 23.2413 73.1519 23.3127 73.5782 23.3345L74.5821 23.4059L74.6897 23.6181H64.5271L64.6367 23.4059L65.782 23.3345C66.7122 23.285 67.2361 22.9717 67.3556 22.3887C67.4751 21.8078 67.3436 20.9116 66.9632 19.7021L65.1366 13.8608H59.0176V13.8628ZM65.0271 13.5039L62.3082 4.70438L59.159 13.5059H65.0271V13.5039Z" fill="#171717"/>
<path d="M24.3967 23.4079L25.8268 23.2671C26.4483 23.2195 26.8646 23.1422 27.0797 23.0351C27.2948 22.9281 27.4024 22.815 27.4024 22.6981V2.17833C27.4024 2.10695 27.3905 2.04945 27.3665 2.00186C27.3446 1.95427 27.265 1.91263 27.1335 1.87694C27.004 1.84125 26.8108 1.80358 26.5618 1.76987C26.3109 1.73418 25.9463 1.70444 25.4703 1.67867L24.4325 1.57358L24.325 1.35944H34.4158L34.3082 1.57358L32.5175 1.71436C31.8981 1.76194 31.4579 1.83927 31.1949 1.94634C30.93 2.05341 30.8005 2.16643 30.8005 2.2854V14.1464L36.3121 8.55493C37.7661 7.08173 38.8696 5.90792 39.6226 5.02956C40.3735 4.15119 40.8316 3.47506 40.999 2.99919C41.1663 2.52333 41.0647 2.20212 40.6962 2.03755C40.3257 1.871 39.7361 1.75203 38.9234 1.68065L37.4933 1.57556L37.4574 1.36142H46.4388L46.3312 1.57556L45.901 1.60927C45.1859 1.68065 44.5963 1.79367 44.1302 1.94832C43.6641 2.10298 43.1343 2.42815 42.5387 2.92781C41.9411 3.42747 41.1922 4.14722 40.2839 5.08309C39.3756 6.02094 38.1247 7.29785 36.5272 8.91183L36.3459 9.12597L43.1801 20.3465C43.5864 20.9869 43.9131 21.4965 44.166 21.8772C44.415 22.2579 44.6521 22.5474 44.8811 22.7496C45.1082 22.9538 45.3472 23.0887 45.5962 23.16C45.8472 23.2314 46.1639 23.2909 46.5443 23.3385L47.369 23.4099L47.4745 23.626H37.7064L37.7781 23.4099L38.8159 23.3385C39.2441 23.3147 39.5608 23.2374 39.764 23.1065C39.9672 22.9776 40.0628 22.7635 40.0508 22.4681C40.0369 22.1706 39.9114 21.7681 39.6744 21.2566C39.4353 20.745 39.0887 20.1006 38.6366 19.3154L33.9836 11.4795L30.7986 14.6837V22.8071C30.7986 22.9261 30.9121 23.0213 31.1372 23.0907C31.3642 23.162 31.9439 23.2334 32.8761 23.3048L34.2704 23.4099L34.378 23.626H24.2871L24.3967 23.4079Z" fill="#171717"/>
</svg>
